<svg xmlns="http://www.w3.org/2000/svg" viewBox="0 0 290.74 239.63"><title>Asset 1</title><g id="Layer_2" data-name="Layer 2"><g id="Layer_1-2" data-name="Layer 1"><path d="M146.29,239.17c-3.32,1.3-5.23-.29-6.45-3.12.11-1.67,2.19-3.09.4-5.4-.89-1.15-.56-3.23-.79-4.89-.74-5.33-1.44-10.68-4.61-15.26a34.79,34.79,0,0,0-9.51-9.85c-.8-.52-2-1.27-2-2-.24-2.56-2.19-2.14-3.82-2.38l1.69,1.1-.37.58c-1.31-.88-2.93-1.52-3.87-2.69-1.62-2-2.52-2.4-5.31-2.24-1.34.08-2.72-1.16-4.11-1.25-4.25-.26-8.52-.21-12.78-.36-1.48-.06-3-.38-4.57-.59.1,2.74-2.07,3.51-4.93,4.31-4.88,1.37-8.79,4.43-12.24,8.27a52,52,0,0,0-5.56,7.79c-1.66,2.7-.7,5.71-2.31,8.14-.25.37-.47.85-.82,1-2.07,1.05-2.81,2.44-2.34,4.92.37,2-.26,4.09-.47,6.42L57.45,231c-.21-3-.24-5.89-.64-8.72s1.11-5,2.15-7.44l-1.5-.33c0-.2,0-.43.11-.51A33.88,33.88,0,0,0,61,211.38c.4-.4.06-1.49.42-2a24,24,0,0,0,3-6.64c.45-1.46.81-3.34,3.15-2.92.17,0,2.1-3.49,2.53-3.87.86-.79,1.94-1.34,2.88-2.06,1.62-1.25,3.15-2.6,4.79-3.81a4.67,4.67,0,0,1,4.23-1c.52.14,1.3-.46,1.87-.84s1.35-1.09,2.59-2.12L86,188.24c.46-.29.9-.61,1.38-.88.68-.38,1.42-1.09,2.07-1a7,7,0,0,0,5.86-1.69c.67-.58,2.53.14,3.83.38a7.12,7.12,0,0,1,1.61.73l.43-.66c-2.25-1.66-4.48-3.33-6.74-5a16.51,16.51,0,0,1-1.7-1c-3.33-3.13-6.85-6.1-9.84-9.53-2.55-2.93-4.31-6.54-6.74-9.59-1.32-1.65-3.37-2.69-5-4.12-1.43-1.27-2.67-2.75-4.1-4a27.78,27.78,0,0,0-2.65-1.75c-1.88-1.33-3.73-2.72-5.62-4a22.36,22.36,0,0,0-2.09-1.14L51,138.55l-.46.25.21,1.83c-.13,0-.32,0-.36-.09a56.75,56.75,0,0,0-3.22-6.17c-.74-1.08-2.43-1.49-3.25-2.54-3-3.9-8-5.19-11.18-8.68l1.14-.37a6.84,6.84,0,0,0-1-1.22c-.79-.64-2.26-.65-1.95-2.32a13.33,13.33,0,0,0-2.36-1l-16.74-18,1.62.12A36.92,36.92,0,0,1,10,97.58c-2.32-2.35-4.58-4.75-6.75-7.24C.87,87.66-.7,84.65.32,80.39c1.39.45,2.8.56,3.75,1.28,4.26,3.22,8.38,6.63,12.58,9.93,1,.76,2.09,1.32,3,2.11q14.08,11.88,28.12,23.81a1.27,1.27,0,0,1,.41.9C34.3,107.29,20.76,95.7,5.28,86.59c1.62,2,3.27,4,4.85,6A19.05,19.05,0,0,1,11.2,94.7c.2.35.55.87.83.87,2.74,0,4.35,1.76,6.06,3.5,4.1,4.16,8.27,8.26,12.39,12.41,2.8,2.82,5.52,5.73,8.34,8.53a33.05,33.05,0,0,0,5.12,4.55,28.74,28.74,0,0,1,7.14,6c1.13,1.39,3.37,1.83,5,2.87a13.88,13.88,0,0,1,2.23,2.5l1.14-.2c-.76,3.59,2,5.47,3.65,7.71.93,1.26,3,1.71,4.39,2.46-.24-2.52-4.08-4.27-2.4-7.93-1.51-.68-1.5-1.64-1-3.61a15,15,0,0,0-.73-10.6A6.5,6.5,0,0,1,63.2,121c0-6.5,0-13,.11-19.5,0-.9.94-1.79,1-2.7.06-1.5.9-3.15-.68-4.53-.38-.33-.35-1.53-.08-2.13C64.93,89.08,66.39,86,68,83c2.57-4.77,5.08-9.6,8-14.17,2.46-3.86,5.44-7.39,8.19-11.07,2.65.43,2.27-3,4.38-3.45a3.78,3.78,0,0,0,2.16-2c1.38-3,4-4.56,6.55-6.19.2-.13.64-.15.66-.27.66-4.88,5.83-3,8.13-5.41.33-.34.91-.43,1.29-.74,3.46-2.84,7.59-3.81,11.86-4.77,3.26-.74,6.23-2.67,9.45-3.66a39.23,39.23,0,0,1,9.8-2A94.25,94.25,0,0,1,152,30a85.66,85.66,0,0,1,10.58,1.88c4.24,1,8.59,1.86,12.54,3.6,2.15.95,3.83,3.89,6.34,3.69,5-.41,7.17,4.38,11.34,5.23.4.08.67.85,1.23,1.62-2-.82-3.54-2.6-6.19-1a21,21,0,0,1-2-2.25c-.8-1.16-4.94-2.65-6.05-2-1.55.85-1.51.76-2.74.24a91.94,91.94,0,0,1-9.84-4.54c.93.26,1.84.59,2.78.76a5.9,5.9,0,0,0,2.68-.09c-1.19-1.95-2.8-2.21-4.76-2.21a18.31,18.31,0,0,1-5.83-1.08c-2-.67-6.48.1-8.07,1.53-3.13-.42-6-.89-8.84-1.14-2.6-.23-5-.72-7.45,1.69-1.5,1.48-4.67,1.28-7.4,1.9l1.19-3.05-6.52-.4,1.63,4.85-9.16,2.65-.2-2.33L112,43.87l.51.66,3.69-2.25c-3.44,4.1-3.85,4.28-7.8,3.69l4.77-7c-4,.75-5.16,3.68-6.24,6.64-.76,2.08-1.12,2.15-2.79.35-3.34,1.82-2.94,7.94-8.46,7.4l-1,2L93,54.6c.85,3-1.58,2.89-3.24,3.79l1.17.89L89.38,61l-2.76-3.29c-.34,1.79-.69,3.07-.8,4.37-.25,2.86-2.73,4.38-3.9,6.71-1,1.95-2.74,3.48-3.93,5.34a30.43,30.43,0,0,0-1.63,4c-1,2.25-2.19,4.43-3.11,6.72a26.83,26.83,0,0,0-1,4.13c-1.57-1.82,1.56-4-.86-6-1.6,5.83,1.09,12.08-3.69,16.87l-.66-.3c-.06.15-.2.34-.16.41,1.65,2.66.52,5.73,1.23,8.58.39,1.58-.58,3.49-.86,5.26a8.48,8.48,0,0,0-.19,2.91c.71,3.53,1.54,7,2.42,10.53.16.64.75,1.18.72,1.87.43,1.39.87,2.77,1.27,4.17a6.7,6.7,0,0,1,.12,1.1q.3,2.68.61,5.36l.79,0,.94-2,.89,8-.85-.24a3.23,3.23,0,0,0,.21.87c1.65,2.88,3.31,5.76,5,8.62.29.49.66,1.13,1.12,1.27,3.5,1.09,5,4.26,7.32,6.65,2.72,2.83,5.63,5.47,8.57,8.08,2.54,2.25,5.39,4.18,7.82,6.54a42.48,42.48,0,0,0,7.58,5.25c1,.64,1.74,1.84,2.8,2.42.77.41,1.89.09,2.81.31a6.73,6.73,0,0,1,2.91,1.5l-1.93-.22-.09.69,3.75.49.15-.71-2-2.43.27-.35,2.57,2.1c1.46,1.2,2.76,2.8,4.43,3.49s3.65.55,5.5.55,3.88-.45,5.8-.36c1.09,0,2.12.83,3.21,1.19a16.91,16.91,0,0,0,2.83.65c.11,0,.32-.66.25-.5a46.61,46.61,0,0,0,5-2.83c1.29-.94,1.57-3.21,4.14-2.49.52.14,1.71-2.1,2.58-3.24l-.48-.42-1.1.93-.5-.58,3.68-3.18.68.58-1.79,5.72c3.21-1.93,2.48-4.92,3.54-7.34,2.05,1,2.63-.29,3.18-2,.61-1.93,1.26-4,4-4.1.16,0,2.48-.65,2.51-2.48,0-.45,1.58-.87,2.22-1.19a11.2,11.2,0,0,1-.2-1.5c1.15-.3,2.32-.48,3.48-.69a26.89,26.89,0,0,1,7.7-8.26c2.4-1.67,4.57-3.29,6-6,.75-1.39,2.58-2.2,4.17-3.1l-2.88,3.81c.85-.09,1.46,0,1.75-.22a4.24,4.24,0,0,0,1.13-1.62c1.4-3.54,3.18-6.69,7.51-7.32l.39,1c.19-.13.4-.2.44-.33a12.94,12.94,0,0,1,7.11-8.28c1-.46,1.59-1.63,2.39-2.46,1.69-1.73,3.4-3.44,5.07-5.18a15.85,15.85,0,0,0,1.2-1.63c1.75-1.32,3.71-2.74,5.58-4.28.21-.18-.11-1-.2-1.65,1.94-1.32,3.25-5.37,6.64-2.38,1.1-1,1.94-2.22,3.08-2.8,2.85-1.44,4.31-4.2,6.5-6.25a29.49,29.49,0,0,1,4.56-2.94,7.22,7.22,0,0,0,1.31-.92c.66-.67.87-2,2.37-1.42.18.07.8-1.07,1.27-1.72,2.24-1.83,4.49-3.87,6.95-5.62,2.63-1.86,5.46-3.44,8.19-5.14.89-.56,1.8-1.09,2.63-1.73,1.06-.81,1.3-3.08,3.52-1.88.14.08.87-1.25,1.49-1.7,3.39-2.48,6.72-5.06,10.29-7.26a22.07,22.07,0,0,1,6.23-2.21,2.75,2.75,0,0,1,2.3.93,2.35,2.35,0,0,1-.48,2.18c-2,1.9-4.13,3.58-6.13,5.44-.92.86-1.51,2.08-2.46,2.9-4.09,3.54-8.3,6.94-12.38,10.49-5.64,4.9-11.18,9.91-16.8,14.83a109.68,109.68,0,0,1-8.76,7c12.28-11.66,25.44-22.4,36.57-35.33l-4.47,2.08c-2.06,2.38-3.37,4.48-5.2,5.89-4.07,3.12-8.53,5.73-12.59,8.86-3.24,2.5-6,5.57-9.19,8.17-2.47,2-5.25,3.7-7.8,5.65-.9.69-1.45,1.82-2.29,2.6-1.38,1.27-2.9,2.38-4.29,3.63-.75.68-1.28,1.63-2,2.29-4.15,3.58-6,8.37-7.54,13.44-2.2,7.25-4.82,14.32-9.43,20.49A13.19,13.19,0,0,0,214,162c-.12.3-.05.85-.23.93-3.33,1.55-3.51,5.7-6.51,7.67s-5.38,4.56-8.09,6.84c-2,1.68-4,3.39-6.11,4.88-.86.59-2.11.61-3.18.9-.3.08-.68.07-.88.25-1.38,1.36-2.73,2.75-4.28,4.34a61,61,0,0,1,8.06,1.68c2.34.81,4.45,2.3,6.82,3.22l-1.39-1.52c1.3.37,2.3.59,3.26,1,.58.22,1.54.66,1.54,1,0,2.56,1.76,1.5,3,1.65a4,4,0,0,1,1.85.74c1.58,1.22,3.07,2.56,4.61,3.83,3,2.46,6.06,4.77,8.84,7.42.91.86.92,2.61,1.49,3.89s1.47,2.57,2.05,3.92a28.52,28.52,0,0,1,1.49,4.37c.48,1.91.69,3.89,1.17,5.81.84,3.38-.15,6.23-4.07,6.88-.5-2.83-.81-5.73-1.56-8.5-1.2-4.48-2.5-8.89-6.27-12.21-2.22-2-3.76-4.65-5.69-6.94a23.2,23.2,0,0,0-4.36-4.51,17.34,17.34,0,0,0-5.63-2.09c-1.67-.4-2.88-2.45-5.2-1.06-.77.46-2.62-1.28-4-1.42-2.93-.29-5.89-.19-8.84-.23-1.83,0-3.66.08-5.48,0a16.16,16.16,0,0,1-2.86-.69c-.1,2.65-1.78,3.63-4.62,4.44-4.16,1.19-8.2,3.09-11,6.89a66.92,66.92,0,0,1-5.29,5.8c-.21.22-.66.37-.68.58-.35,3.09-3,5.43-2.64,8.84A3.33,3.33,0,0,1,147.1,224c-1.42.55-2.13,2.69-1.69,4.38a2.55,2.55,0,0,1-.08,1.23c-.8,3,0,5.8,1,8.6A2.94,2.94,0,0,1,146.29,239.17Zm7.08-48,.48.71,13.22-9.12.33.46L159,190.35l.31.77c4.05-3.2,9.22.14,13.32-2.81l-2.83.29-.16-.89c3.71,1,5.83-4.11,9.83-2.06.15.07.5-.09.66-.25,1.18-1.09,2.31-2.22,3.5-3.29.72-.65,1.45-1.64,2.28-1.75,4-.57,6.19-3.85,9.22-5.82,1.78-1.16,2.95-3.29,4.34-5,2.3-2.87,4.57-5.77,6.83-8.68.76-1,1.58-2.92,2.17-2.84,2.15.29,1.74-1.29,2.2-2.28a7.35,7.35,0,0,1,.54-1.15,40.7,40.7,0,0,0,3.64-5.27c1.78-3.75,3.29-7.63,4.79-11.5a49.09,49.09,0,0,0,1.37-4.94l-.85-.53a31.28,31.28,0,0,1-2.87,3.12c-1.64,1.37-3.68,2.34-5.11,3.88-2.59,2.78-4.76,6-8.41,7.57-.74.33-1.83,1.37-1.72,1.85.52,2.32-.8,2.88-2.51,3.83a74,74,0,0,0-8.06,5.68c-3.89,2.92-7.77,5.87-11.56,8.92-1.06.85-1.6,2.72-2.71,3.07-2.64.84-4.05,2.84-5.73,4.68-.94,1-2,1.91-3,2.94a26.58,26.58,0,0,0-1.7,2.21Z"/><path d="M198.16,51.24l-.66-1.38c2.87,0,3.87,1.09,4.44,4.8,2.86-1,5.42-2.15,6.46-5.53l-2.13,1C207,49,207,49,212.37,48l-6.25,7.75c4.59-.51,6.67-3.44,8.38-6.85.63-1.26,1-3.54,3.12-1.16a5.47,5.47,0,0,0,2.27-1.42c1.38-1.55,2.39-3.45,3.9-4.82,1-.93,2.09-2.48,4.05-1.74.29.11.89-.8,1.42-1.11a10.7,10.7,0,0,1,1.64-.61c.28-.1.77-.23.78-.37.19-2.78,2.81-2.86,4.72-4.1L235,32.7l1.14-1.32L239,34.13c.45-.42.74-.56.79-.76,1.57-7.11,6.7-12.08,10.51-17.88C252.7,11.91,255,8,254.48,3.27l2.83.95.41-3.59c3.3.35,3.18.63,2.28,3.62a60.2,60.2,0,0,1-9.13,18,139.55,139.55,0,0,1-8.79,11c-1.59,1.77-3.81,3-5.67,4.51-1.2,1-2.23,2.18-3.4,3.22-1.72,1.53-3.47,3-5.26,4.49s-4.65,1.79-4.76,5l-.22-1.13c-3.4,1.71-6.91,3.14-10.07,5.14a37.94,37.94,0,0,1-11.39,4.73c-4.41,1.11-8.49,3.45-12.8,5a63,63,0,0,1-11,3.19c-3.88.63-7.91.36-11.86.62-2.74.18-5.46.69-8.2.9-2,.15-4.07,0-6.11.08-4.07.14-8.15.59-12.2.41-2.37-.1-4.66-1.41-7-1.74-2.9-.41-5.87-.37-8.81-.49a16.38,16.38,0,0,1-2.61.06c-2.89-.61-5.75-1.36-8.22-2h3.89L116,63.4c3.88,3.11,7.82,3,12.08,1.65l-.92-.87,14.41,1.39c-1.65.81-4.39-1.52-5.91,2.19a35,35,0,0,0,5.74.19c2.72-.36,5.21-1.16,8.2-.63a9.44,9.44,0,0,0,9-3c2.53,0,5,0,7.46,0s4.77-.06,7.15-.21a3.21,3.21,0,0,0,2-.85c2-2.24,5-2.65,7.51-3.9a9.51,9.51,0,0,1,3-.39L185,61.33c2.34,0,4.39.12,6.41-.09.48,0,1.28-1.26,1.18-1.8a13.83,13.83,0,0,0-1.33-3.14l6.58-1.74L198,53.5l-5.08-3.65.31-.7Z"/><path d="M147.22,124.61l-1-.57L141,125.43l.22-.7c-.61-.48-1.44-.85-1.8-1.47-1.39-2.37-2.69-4.81-3.9-7.28-.39-.79-.26-1.83-.64-2.62-.53-1.12-.6-1.67.64-2.52,1-.67,1.15-2.49,2.09-3.34,5.19-4.69,8.64-3.58,13.61-1,1.79.94,3.88,1.83,4,4.33.08,1.35,1.16,2.86-.66,4-.41.26-.39,1.21-.54,1.85-.78,3.16-2.38,5.58-5.7,6.56C147.93,123.36,147.7,124,147.22,124.61Z"/><path d="M35.26,7,33,.61A14.65,14.65,0,0,1,36.34,0c.36,0,1.05,1.27.92,1.78A47.74,47.74,0,0,1,35.26,7Z"/><path d="M100.78,59.3l7,1.48-.08.49-6.09-.71-.48.49,2,.25C101,62.15,100.76,61.88,100.78,59.3Z"/></g></g></svg>