<svg xmlns="http://www.w3.org/2000/svg" width="24" height="24" viewBox="0 0 24 24"><path d="M13.888 14.154c-.288 0-.535.184-.717.405v-1.893h-.814v5.88h.814v-.333c.225.28.471.388.766.388.537 0 .737-.417.737-.954v-2.406c0-.588-.195-1.087-.786-1.087zm-.044 3.376c0 .138-.023.238-.07.299-.089.116-.281.111-.413.045l-.191-.153v-2.703l.167-.132c.141-.071.323-.058.421.071.058.076.086.187.086.333v2.24zm-2.716-8.53v-2.119c0-.25.115-.434.353-.434.26 0 .371.179.371.434v2.119c0 .248-.126.431-.354.431-.235 0-.37-.191-.37-.431zm-1.849 4.52h-.94v5.027h-.908v-5.027h-.94v-.854h2.788v.854zm1.484.688h.807v4.338h-.807v-.479c-.148.176-.303.311-.464.403-.435.249-1.031.244-1.031-.636v-3.626h.806v3.325c0 .175.042.292.215.292.157 0 .376-.202.474-.325v-3.292zm-10.763-14.208v24h24v-24h-24zm13.434 5.62h.847v3.491c0 .184.044.307.226.307.165 0 .395-.212.498-.341v-3.457h.847v4.555h-.847v-.504c-.367.436-.723.569-.979.569-.454 0-.591-.364-.591-.813v-3.807zm-1.937-.038c.687 0 1.217.511 1.217 1.224v2.233c0 .765-.536 1.22-1.217 1.22-.821 0-1.241-.417-1.241-1.22v-2.233c0-.731.495-1.224 1.241-1.224zm-3.435-1.582l.658 2.468.611-2.468h.969l-1.11 3.67v2.504h-.954v-2.504l-1.134-3.67h.96zm8.493 15.912c-1.735.118-7.377.118-9.11 0-1.878-.128-2.097-1.267-2.111-4.245.014-2.983.235-4.116 2.111-4.245 1.733-.118 7.375-.118 9.11 0 1.878.128 2.097 1.267 2.111 4.245-.014 2.983-.235 4.116-2.111 4.245zm-.047-5.813c-.728 0-1.225.522-1.225 1.275v1.947c0 .781.394 1.342 1.164 1.342.85 0 1.208-.506 1.208-1.342v-.326h-.83v.301c0 .378-.02.607-.36.607-.325 0-.352-.282-.352-.607v-.818h1.542v-1.104c0-.783-.373-1.275-1.147-1.275zm.317 1.707h-.712v-.439c0-.298.062-.508.36-.508.29 0 .352.215.352.508v.439z"/></svg>